<?xml version="1.0" encoding="UTF-8" standalone="no"?>
<!-- Created with Inkscape (http://www.inkscape.org/) -->

<svg
   xmlns:dc="http://purl.org/dc/elements/1.1/"
   xmlns:cc="http://creativecommons.org/ns#"
   xmlns:rdf="http://www.w3.org/1999/02/22-rdf-syntax-ns#"
   xmlns:svg="http://www.w3.org/2000/svg"
   xmlns="http://www.w3.org/2000/svg"
   version="1.1"
   width="186.38"
   height="199.32001"
   id="svg2"
   xml:space="preserve"><metadata
     id="metadata8"><rdf:RDF><cc:Work
         rdf:about=""><dc:format>image/svg+xml</dc:format><dc:type
           rdf:resource="http://purl.org/dc/dcmitype/StillImage" /><dc:title></dc:title></cc:Work></rdf:RDF></metadata><defs
     id="defs6"><clipPath
       id="clipPath16"><path
         d="m 0,0 581.102,0 0,773.858 L 0,773.858 0,0 z"
         id="path18" /></clipPath><clipPath
       id="clipPath26"><path
         d="m 0,0 581.102,0 0,773.858 L 0,773.858 0,0 z"
         id="path28" /></clipPath><clipPath
       id="clipPath74"><path
         d="m 0,0 581.102,0 0,773.858 L 0,773.858 0,0 z"
         id="path76" /></clipPath><clipPath
       id="clipPath150"><path
         d="m 0,0 581.102,0 0,773.858 L 0,773.858 0,0 z"
         id="path152" /></clipPath><clipPath
       id="clipPath180"><path
         d="m 0,155.906 196.55,0 0,139.464 -196.55,0 0,-139.464 z"
         id="path182" /></clipPath><clipPath
       id="clipPath196"><path
         d="m 0,0 581.102,0 0,773.858 L 0,773.858 0,0 z"
         id="path198" /></clipPath><clipPath
       id="clipPath204"><path
         d="m -0.999985,296.37 597.275985,0 0,-141.464 -597.275985,0 0,141.464 z"
         id="path206" /></clipPath><clipPath
       id="clipPath220"><path
         d="m 196.55,155.906 203.652,0 0,139.464 -203.652,0 0,-139.464 z"
         id="path222" /></clipPath><clipPath
       id="clipPath234"><path
         d="m 400.202,155.906 180.9,0 0,139.464 -180.9,0 0,-139.464 z"
         id="path236" /></clipPath><clipPath
       id="clipPath246"><path
         d="m 0,0 581.102,0 0,773.858 L 0,773.858 0,0 z"
         id="path248" /></clipPath><clipPath
       id="clipPath254"><path
         d="m -0.999985,296.37 597.275985,0 0,-141.464 -597.275985,0 0,141.464 z"
         id="path256" /></clipPath><clipPath
       id="clipPath270"><path
         d="m 0,0 581.102,0 0,773.858 L 0,773.858 0,0 z"
         id="path272" /></clipPath><clipPath
       id="clipPath278"><path
         d="m 0,401.102 581.102,0 0,143.342 -581.102,0 0,-143.342 z"
         id="path280" /></clipPath><clipPath
       id="clipPath290"><path
         d="m 0,0 581.102,0 0,773.858 L 0,773.858 0,0 z"
         id="path292" /></clipPath><clipPath
       id="clipPath150-9"><path
         d="m 0,0 581.102,0 0,773.858 L 0,773.858 0,0 z"
         id="path152-9" /></clipPath></defs><g
     transform="matrix(1.25,0,0,-1.25,0,199.31991)"
     id="g10"><path
       d="M 16.22805,80.4052 2.5523801,41.00658 l 8.0058099,0 2.8337,8.77733 13.52044,0 2.7376,-8.77733 8.25961,0 -13.52783,39.39862 m -8.91506,-24.16312 4.71133,14.45438 0.10349,0 4.56103,-14.45438 -9.37585,0 z m 47.21187,9.43225 c -0.97577,1.39848 -2.21274,2.51241 -3.69366,3.36599 -1.49323,0.84283 -3.26491,1.26157 -5.32242,1.26157 -1.62384,0 -3.10475,-0.34626 -4.45753,-1.04416 -1.35032,-0.69788 -2.46655,-1.82256 -3.34623,-3.36597 l -0.10103,0 0,3.64781 -6.8403,0 0,-49.99043 7.20006,0 0,24.99253 0.10103,0 c 0.87228,-1.3931 1.9959,-2.45604 3.3684,-3.17272 1.36757,-0.71937 2.86327,-1.07368 4.48464,-1.07368 1.91952,0 3.60002,0.408 5.03658,1.20789 1.4341,0.80794 2.63411,1.89504 3.59511,3.25324 0.96345,1.36358 1.67557,2.93115 2.15114,4.69467 0.47557,1.76083 0.70966,3.60487 0.70966,5.51602 0,2.0212 -0.23409,3.96187 -0.70966,5.8247 -0.47557,1.85746 -1.19262,3.47871 -2.17579,4.88254 M 58.06822,51.82389 C 57.8637,50.71533 57.51873,49.75975 57.03084,48.92228 56.53802,48.09555 55.89736,47.4245 55.10639,46.9145 c -0.7959,-0.51805 -1.78153,-0.77036 -2.96676,-0.77036 -1.1458,0 -2.12157,0.25231 -2.93472,0.77036 -0.81069,0.51 -1.46367,1.18105 -1.95156,2.00778 -0.48789,0.83747 -0.84764,1.79305 -1.06695,2.90161 -0.21684,1.10589 -0.32772,2.22252 -0.32772,3.3633 0,1.18105 0.10349,2.32451 0.30308,3.42503 0.20206,1.10052 0.55196,2.07488 1.03985,2.92309 0.49281,0.84284 1.13347,1.53267 1.92691,2.0722 0.79344,0.52878 1.78153,0.7972 2.96429,0.7972 1.1458,0 2.11665,-0.26842 2.91009,-0.7972 0.7959,-0.53953 1.44395,-1.23473 1.95155,-2.10173 0.50514,-0.86699 0.86736,-1.84673 1.09159,-2.94725 0.21684,-1.10856 0.32526,-2.23056 0.32526,-3.37134 0,-1.14078 -0.0986,-2.25741 -0.30308,-3.3633 m 32.47171,14.3685 c -1.17783,1.3072 -2.60453,2.31914 -4.28011,3.0385 -1.67557,0.71668 -3.54089,1.071 -5.60087,1.071 -2.06243,0 -3.91543,-0.35432 -5.57129,-1.071 -1.6534,-0.71936 -3.07025,-1.7313 -4.25301,-3.0385 -1.18523,-1.29915 -2.09448,-2.88283 -2.73514,-4.74029 -0.64066,-1.85478 -0.96346,-3.92161 -0.96346,-6.20585 0,-2.28694 0.3228,-4.34304 0.96346,-6.18171 0.64066,-1.83867 1.54991,-3.41429 2.73514,-4.71614 1.18276,-1.3072 2.59961,-2.31377 4.25301,-3.01166 1.65586,-0.69521 3.50886,-1.04147 5.57129,-1.04147 2.05998,0 3.9253,0.34626 5.60087,1.04147 1.67558,0.69789 3.10228,1.70446 4.28011,3.01166 1.1803,1.30185 2.08708,2.87747 2.73514,4.71614 0.6382,1.83867 0.96099,3.89477 0.96099,6.18171 0,2.28424 -0.32279,4.35107 -0.96099,6.20585 -0.64806,1.85746 -1.55484,3.44114 -2.73514,4.74029 M 86.74032,51.90442 C 86.5358,50.82269 86.19576,49.84296 85.70293,48.98133 85.21258,48.11971 84.55221,47.4245 83.72181,46.9145 c -0.81808,-0.51805 -1.84313,-0.77036 -3.06286,-0.77036 -1.21479,0 -2.22753,0.25231 -3.04068,0.77036 -0.80822,0.51 -1.46366,1.20521 -1.94662,2.06683 -0.49282,0.86163 -0.83533,1.84136 -1.03985,2.92309 -0.20452,1.0871 -0.30062,2.19835 -0.30062,3.34183 0,1.13809 0.0961,2.26545 0.30062,3.36597 0.20452,1.10052 0.54703,2.07488 1.03985,2.92309 0.48296,0.84284 1.1384,1.53267 1.94662,2.0722 0.81315,0.52878 1.82589,0.7972 3.04068,0.7972 1.21973,0 2.24478,-0.26842 3.06286,-0.7972 0.8304,-0.53953 1.49077,-1.22936 1.98112,-2.0722 0.49283,-0.84821 0.83287,-1.82257 1.03739,-2.92309 0.20452,-1.10052 0.30308,-2.22788 0.30308,-3.36597 0,-1.14348 -0.0986,-2.25473 -0.30308,-3.34183 m 9.56804,-10.89784 7.19266,0 0,39.39862 -7.19266,0 0,-39.39862 z m 11.80296,0 7.19267,0 0,39.39862 -7.19267,0 0,-39.39862 z m 35.41137,20.44552 c -0.64559,1.85746 -1.55237,3.44114 -2.7376,4.74029 -1.18276,1.3072 -2.60453,2.31914 -4.27765,3.0385 -1.67557,0.71668 -3.53842,1.071 -5.5984,1.071 -2.05997,0 -3.91543,-0.35432 -5.57622,-1.071 -1.65094,-0.71936 -3.06779,-1.7313 -4.25302,-3.0385 -1.17783,-1.29915 -2.092,-2.88283 -2.73513,-4.74029 -0.64066,-1.85478 -0.96099,-3.92161 -0.96099,-6.20585 0,-2.28694 0.32033,-4.34304 0.96099,-6.18171 0.64313,-1.83867 1.5573,-3.41429 2.73513,-4.71614 1.18523,-1.3072 2.60208,-2.31377 4.25302,-3.01166 1.66079,-0.69521 3.51625,-1.04147 5.57622,-1.04147 2.05998,0 3.92283,0.34626 5.5984,1.04147 1.67312,0.69789 3.09489,1.70446 4.27765,3.01166 1.18523,1.30185 2.09201,2.87747 2.7376,4.71614 0.64313,1.83867 0.95853,3.89477 0.95853,6.18171 0,2.28424 -0.3154,4.35107 -0.95853,6.20585 m -6.53475,-9.54768 c -0.19959,-1.08173 -0.55442,-2.06146 -1.03984,-2.92309 -0.49036,-0.86162 -1.1458,-1.55683 -1.97866,-2.06683 -0.82055,-0.51805 -1.84807,-0.77036 -3.0604,-0.77036 -1.21972,0 -2.22507,0.25231 -3.03575,0.77036 -0.81808,0.51 -1.46367,1.20521 -1.95649,2.06683 -0.49035,0.86163 -0.83285,1.84136 -1.03737,2.92309 -0.19959,1.0871 -0.2957,2.19835 -0.2957,3.34183 0,1.13809 0.0961,2.26545 0.2957,3.36597 0.20452,1.10052 0.54702,2.07488 1.03737,2.92309 0.49282,0.84284 1.13841,1.53267 1.95649,2.0722 0.81068,0.52878 1.81603,0.7972 3.03575,0.7972 1.21233,0 2.23985,-0.26842 3.0604,-0.7972 0.83286,-0.53953 1.4883,-1.22936 1.97866,-2.0722 0.48542,-0.84821 0.84025,-1.82257 1.03984,-2.92309 0.20206,-1.10052 0.30554,-2.22788 0.30554,-3.36597 0,-1.14348 -0.10102,-2.25473 -0.30554,-3.34183"
       id="path158"
       style="fill:#2582a1;fill-opacity:1;fill-rule:nonzero;stroke:none" /><path
       d="m 59.49394,27.27961 -5.46041,0 0,4.78323 -1.45135,0 0,-11.57423 1.45135,0 0,5.41132 5.46041,0 0,-5.41132 1.45381,0 0,11.57423 -1.45381,0 m 9.4473,0.32479 c -1.78646,0 -3.1491,-0.72205 -4.05588,-2.15541 -0.71951,-1.11394 -1.0768,-2.44798 -1.0768,-4.01823 0,-1.72862 0.41643,-3.16734 1.25175,-4.30276 0.93635,-1.17568 2.22507,-1.76083 3.85629,-1.76083 1.7495,0 3.09736,0.67105 4.0411,2.01583 0.80822,1.14346 1.20741,2.58488 1.20741,4.30812 0,1.60246 -0.34744,2.9043 -1.05463,3.9404 -0.89693,1.30989 -2.28914,1.97288 -4.16924,1.97288 m 2.9027,-9.35978 c -0.56921,-0.99046 -1.49077,-1.48972 -2.75731,-1.48972 -1.33061,0 -2.30146,0.44826 -2.89284,1.32868 -0.59631,0.88309 -0.89693,1.96214 -0.89693,3.23712 0,1.60515 0.34744,2.82378 1.03985,3.64246 0.69733,0.82941 1.59672,1.23741 2.69571,1.23741 1.13348,0 2.02055,-0.41337 2.67599,-1.24816 0.66038,-0.82941 0.98071,-1.92456 0.98071,-3.28813 0,-1.2911 -0.28337,-2.4265 -0.84518,-3.41966 m 12.01734,3.05461 c -0.37947,0.30868 -0.91664,0.55294 -1.61151,0.73547 l -1.44395,0.36505 c -0.96839,0.25768 -1.5918,0.46437 -1.86778,0.63347 -0.42136,0.26305 -0.63574,0.67642 -0.63574,1.24547 0,0.51536 0.17249,0.96631 0.53471,1.3582 0.35237,0.3892 0.93635,0.58515 1.75689,0.58515 1.00782,0 1.7224,-0.30599 2.14376,-0.91263 0.22423,-0.32747 0.37207,-0.80525 0.44353,-1.4253 l 1.35278,0 c 0,1.28841 -0.38439,2.22519 -1.13594,2.81303 -0.7614,0.58247 -1.67804,0.87774 -2.7647,0.87774 -1.1803,0 -2.09201,-0.33016 -2.73267,-1.00121 -0.65052,-0.66568 -0.96346,-1.52462 -0.96346,-2.56609 0,-0.96362 0.32772,-1.6803 0.98071,-2.16883 0.37947,-0.27378 1.02259,-0.52878 1.9343,-0.76499 l 1.39714,-0.35163 c 0.75155,-0.19058 1.30597,-0.4241 1.66326,-0.68715 0.3499,-0.27379 0.52978,-0.714 0.52978,-1.34209 0,-0.84552 -0.41397,-1.42799 -1.2419,-1.7501 -0.42629,-0.17447 -0.90432,-0.25231 -1.42424,-0.25231 -1.16305,0 -1.97127,0.38115 -2.43698,1.14346 -0.23902,0.41874 -0.37455,0.94216 -0.40411,1.60247 l -1.35525,0 c -0.0148,-1.25352 0.34497,-2.24399 1.06941,-2.96872 0.73676,-0.74084 1.73965,-1.10052 3.03576,-1.10052 1.10144,0 2.06983,0.26573 2.90515,0.81868 0.83533,0.55563 1.25176,1.46825 1.25176,2.75935 0,1.02805 -0.3228,1.80913 -0.98071,2.35403 m 9.02101,5.98038 -4.75568,0 0,-11.57423 1.43903,0 0,4.88791 3.31665,0 c 1.05956,0 1.85546,0.33552 2.37046,1.00657 0.51746,0.67373 0.76879,1.45751 0.76879,2.3594 0,1.05489 -0.28337,1.86552 -0.86489,2.45067 -0.57906,0.57979 -1.33554,0.86968 -2.27436,0.86968 m 1.0916,-4.9067 c -0.40658,-0.30332 -0.92404,-0.46169 -1.56224,-0.46169 l -2.84601,0 0,4.02361 2.84601,0 c 0.54704,0 0.98318,-0.0805 1.29858,-0.24158 0.57659,-0.30868 0.85997,-0.88309 0.85997,-1.73667 0,-0.76231 -0.20452,-1.29109 -0.59631,-1.58367 m 5.33228,-6.66753 1.45627,0 0,11.57691 -1.45627,0 0,-11.57691 z m 4.01646,10.19724 3.57538,0 0,-10.19724 1.45627,0 0,10.19724 3.58032,0 0,1.37699 -8.61197,0 0,-1.37699 z m 13.05718,1.37699 -4.00413,-11.57423 1.47598,0 1.15073,3.46798 4.17169,0 1.11377,-3.46798 1.57948,0 -3.86369,11.57423 -1.62383,0 z m -0.9536,-6.83396 1.70515,5.12144 1.63861,-5.12144 -3.34376,0 z m 10.28509,6.83396 -1.43656,0 0,-11.57423 6.76884,0 0,1.37162 -5.33228,0 0,10.20261 z m 14.77958,-5.98038 c -0.37453,0.30868 -0.91417,0.55294 -1.60658,0.73547 l -1.44395,0.36505 c -0.97578,0.25768 -1.59673,0.46437 -1.87271,0.63347 -0.41889,0.26305 -0.6308,0.67642 -0.6308,1.24547 0,0.51536 0.17495,0.96631 0.52977,1.3582 0.35976,0.3892 0.94375,0.58515 1.7569,0.58515 1.01273,0 1.71993,-0.30599 2.14129,-0.91263 0.22669,-0.32747 0.37454,-0.80525 0.45092,-1.4253 l 1.3454,0 c 0,1.28841 -0.37701,2.22519 -1.13102,2.81303 -0.7614,0.58247 -1.68543,0.87774 -2.76963,0.87774 -1.17783,0 -2.08955,-0.33016 -2.72775,-1.00121 -0.64804,-0.66568 -0.96838,-1.52462 -0.96838,-2.56609 0,-0.96362 0.3228,-1.6803 0.98317,-2.16883 0.37701,-0.27378 1.02506,-0.52878 1.93677,-0.76499 l 1.38975,-0.35163 c 0.75893,-0.19058 1.32075,-0.4241 1.66572,-0.68715 0.35483,-0.27379 0.52731,-0.714 0.52731,-1.34209 0,-0.84552 -0.4115,-1.42799 -1.23943,-1.7501 -0.42629,-0.17447 -0.89939,-0.25231 -1.41685,-0.25231 -1.16551,0 -1.97866,0.38115 -2.43945,1.14346 -0.23655,0.41874 -0.37453,0.94216 -0.40903,1.60247 l -1.34786,0 c -0.0197,-1.25352 0.34004,-2.24399 1.07188,-2.96872 0.72937,-0.74084 1.73718,-1.10052 3.02589,-1.10052 1.10391,0 2.07476,0.26573 2.90763,0.81868 0.83532,0.55563 1.25421,1.46825 1.25421,2.75935 0,1.02805 -0.32772,1.80913 -0.98317,2.35403"
       id="path162"
       style="fill:#2582a1;fill-opacity:1;fill-rule:nonzero;stroke:none" /><path
       d="m 66.62623,75.86247 4.27026,-3.62098 4.26287,3.62098 0,10.89246 -8.53313,0 m 8.96927,11.88829 -10.21117,0 0,2.64662 -23.31024,-28.5974 12.34013,0 12.14794,15.26769 9.03334,0 0,1.46289 0.007,0 0,8.43374 -0.007,0 0,0.78646 z m -8.96927,1.21326 8.53313,0 0,9.15579 4.50435,7.59358 -18.07653,0 5.03905,-7.59358 0,-9.15579 z m -26.1193,32.02512 -23.58869,0 0,-44.76162 11.12042,0 25.61663,30.59981 -13.14836,14.16181 z m -8.44935,-15.53611 -3.67395,0 0,-3.99408 -3.22303,0 0,3.99408 -3.66655,0 0,3.50824 3.66655,0 0,3.99676 3.22303,0 0,-3.99676 3.67395,0 0,-3.50824 z m 18.15784,-27.19626 1.79632,6.86348 2.40741,0 0,19.12489 -24.92668,-29.76235 0,-13.12034 12.45102,14.86507 5.75117,0 c 0,0 2.00084,-0.22011 2.52076,2.02925 m 1.37496,16.19911 -1.83081,-1.99704 -1.83328,1.99704 3.66409,0 z"
       id="path166"
       style="fill:#2582a1;fill-opacity:1;fill-rule:nonzero;stroke:none" /><path
       d="m 60.31201,143.17347 -0.27597,0.0966 C 45.6236,147.3071 44.74392,154.745 45.12832,157.40772 c -1.00781,-3.04924 -0.92896,-9.05647 0.14292,-12.64792 1.72486,-1.87626 7.46618,-4.63292 13.01037,-5.22881 0.59877,-0.0913 1.17537,-0.21206 1.75443,-0.33016 14.52085,-2.97677 15.74304,-15.87701 10.45757,-22.12045 0.57167,1.19716 6.67275,14.60471 -8.27193,17.35064 -0.74169,0.1181 -1.43163,0.26842 -2.05997,0.38384 -10.56847,2.12856 -11.52453,3.85987 -12.04938,4.04239 -0.4115,-1.97556 2.19796,-12.65597 12.04938,-13.99807 l 0.0838,0 c 9.24278,-1.21594 10.14464,-6.21123 10.20131,-7.83248 l -0.01,-0.0134 0.01,0.0134 0.002,-0.0349 0.0246,0.0483 c 2.6686,2.0722 4.35897,5.82201 4.51913,9.86978 l 0,1.13273 c -0.24642,6.34544 -4.36144,13.10424 -14.68103,15.13081"
       id="path170"
       style="fill:#fdb931;fill-opacity:1;fill-rule:nonzero;stroke:none" /><path
       d="m 2.5528701,9.9926103 2.44437,0 0,-6.9628 0.99549,0 0,6.9628 2.44438,0 0,0.9421497 -5.88424,0 M 16.71397,11.14949 c -1.22465,0 -2.15115,-0.48584 -2.77703,-1.4682497 -0.48788,-0.75963 -0.73183,-1.66957 -0.73183,-2.74325 0,-1.18105 0.28583,-2.16078 0.8575,-2.93919 0.6382,-0.79989 1.51541,-1.19983 2.63165,-1.19983 1.19508,0 2.11418,0.45631 2.75731,1.3743 0.54702,0.78647 0.82793,1.76351 0.82793,2.94725 0,1.08441 -0.24148,1.98093 -0.72444,2.68419 C 18.9415,10.69855 17.99283,11.14949 16.71397,11.14949 m 1.97619,-6.3830097 c -0.38439,-0.67642 -1.01273,-1.01999 -1.88009,-1.01999 -0.91171,0 -1.57209,0.30599 -1.97866,0.90993 -0.40411,0.59858 -0.60617,1.33405 -0.60617,2.21447 0,1.08978 0.23655,1.92188 0.70966,2.48556 0.47803,0.561 1.09159,0.8347797 1.83821,0.8347797 0.77372,0 1.38481,-0.2818397 1.82835,-0.8455197 0.446,-0.56905 0.66776,-1.31526 0.66776,-2.24666 0,-0.88042 -0.19219,-1.65616 -0.57906,-2.33257 m 11.98778,1.28305 c 0,-0.57711 -0.0789,-1.03074 -0.24395,-1.36626 -0.30308,-0.61468 -0.87228,-0.92874 -1.71253,-0.92874 -0.6998,0 -1.19509,0.28721 -1.49078,0.85895 -0.20205,0.38921 -0.30061,0.85894 -0.30061,1.43605 l 0,4.8852297 -0.99057,0 0,-4.4423497 c 0,-0.97168 0.11828,-1.7152 0.3573,-2.23861 0.44107,-0.95289 1.27886,-1.43336 2.50597,-1.43336 1.22711,0 2.06737,0.48047 2.50844,1.43336 0.23901,0.52341 0.35976,1.26693 0.35976,2.23861 l 0,4.4423497 -0.99303,0 0,-4.8852297 z m 11.55163,-1.37432 c -0.36961,-0.60662 -0.9191,-0.90994 -1.6263,-0.90994 -0.77372,0 -1.35278,0.28721 -1.74457,0.85894 -0.38686,0.57711 -0.58399,1.33136 -0.58399,2.25473 0,1.13273 0.21931,1.96751 0.65052,2.52046 0.42875,0.53952 0.99303,0.8186797 1.70269,0.8186797 0.5692,0 1.0152,-0.14763 1.3306,-0.4455797 0.32033,-0.30332 0.53717,-0.70326 0.64313,-1.21057 l 0.9536,0 c -0.0493,0.66568 -0.32773,1.26962 -0.83286,1.7957197 -0.49528,0.52342 -1.20248,0.79184 -2.11172,0.79184 -1.06449,0 -1.89735,-0.408 -2.50105,-1.2186197 -0.55935,-0.74621 -0.84025,-1.70178 -0.84025,-2.86404 0,-1.53804 0.36961,-2.67346 1.11623,-3.41698 0.56674,-0.55294 1.269,-0.82941 2.09693,-0.82941 0.96839,0 1.73965,0.33552 2.30392,1.01462 0.47804,0.56905 0.75894,1.26157 0.84026,2.08831 l -0.95853,0 c -0.0961,-0.51268 -0.24148,-0.93411 -0.43861,-1.24816 m 11.835,2.98752 -3.7257,0 0,3.2720297 -0.99549,0 0,-7.9049497 0.99549,0 0,3.69076 3.7257,0 0,-3.69076 0.99303,0 0,7.9049497 -0.99303,0 0,-3.2720297 z m 7.20252,-4.63292 0.9881,0 0,7.9022597 -0.9881,0 0,-7.9022597 z m 11.77833,1.51924 -3.60988,6.3857097 -1.16305,0 0,-7.9049497 0.93881,0 0,6.38032 3.67149,-6.38032 1.10637,0 0,7.9049497 -0.94374,0 0,-6.3857097 z m 10.02636,1.8172 2.26696,0 c -0.01,-0.92336 -0.22177,-1.58904 -0.65052,-2.00508 -0.41889,-0.408 -0.95113,-0.62542 -1.58687,-0.62542 -0.84518,0 -1.44642,0.30062 -1.82096,0.88846 -0.37207,0.59052 -0.55195,1.3582 -0.55195,2.29499 0,1.08441 0.2193,1.90309 0.67269,2.45067 0.446,0.55563 1.00289,0.8213597 1.66326,0.8213597 0.54949,0 1.00781,-0.12615 1.37742,-0.3865197 0.36223,-0.26574 0.59878,-0.69252 0.71459,-1.26962 l 0.9807,0 c -0.16509,1.03609 -0.5963,1.7608297 -1.30842,2.1768797 -0.49282,0.27916 -1.06942,0.4241 -1.74211,0.4241 -0.98317,0 -1.77907,-0.3731 -2.39509,-1.11931 C 80.04096,9.2356603 79.7157,8.1861403 79.7157,6.8574603 c 0,-1.32599 0.33758,-2.36209 1.00042,-3.13245 0.60863,-0.60394 1.3306,-0.90457 2.18071,-0.90457 0.65545,0 1.19016,0.13421 1.61398,0.39725 0.2538,0.15032 0.53717,0.42948 0.87475,0.82942 l 0.23162,-1.0173 0.63574,0 0,4.2276 -3.18114,0 0,-0.89116 z m 17.42847,4.5685097 -0.9807,0 0,-7.9049497 4.62016,0 0,0.94483 -3.63946,0 0,6.9601197 z m 9.28468,-7.9049497 0.99303,0 0,7.9022597 -0.99303,0 0,-7.9022597 z m 9.66167,1.1703 -2.08215,6.7346497 -1.08173,0 2.6415,-7.9049497 1.04478,0 2.65135,7.9049497 -1.11131,0 -2.06244,-6.7346497 z m 9.56805,2.44798 3.98196,0 0,0.91264 -3.98196,0 0,2.40235 4.30475,0 0,0.9716797 -5.26328,0 0,-7.9049497 5.33228,0 0,0.94483 -4.37375,0 0,2.67345 z m 14.80423,0.19864 c -0.2612,0.21473 -0.62835,0.37847 -1.10145,0.50463 l -0.98563,0.25231 c -0.66531,0.17179 -1.08913,0.31137 -1.27887,0.43215 -0.28829,0.17448 -0.43121,0.45632 -0.43121,0.84821 0,0.35163 0.12074,0.65494 0.36222,0.92874 0.24148,0.2630397 0.64313,0.3972497 1.20247,0.3972497 0.68502,0 1.17537,-0.20937 1.45627,-0.6173597 0.16264,-0.22816 0.26366,-0.55831 0.30802,-0.97705 l 0.9265,0 c 0,0.87236 -0.26366,1.5138797 -0.78359,1.9191997 -0.51499,0.39995 -1.14333,0.59858 -1.88502,0.59858 -0.80575,0 -1.42671,-0.22816 -1.85792,-0.68716 -0.44354,-0.4536197 -0.66531,-1.0360997 -0.66531,-1.7447197 0,-0.65763 0.22177,-1.15152 0.6727,-1.48168 0.25626,-0.19326 0.70473,-0.36505 1.32075,-0.52878 l 0.94621,-0.23621 c 0.52238,-0.13422 0.90432,-0.2899 1.14087,-0.46974 0.24148,-0.18253 0.35975,-0.48584 0.35975,-0.92068 0,-0.56905 -0.28336,-0.97168 -0.84024,-1.18641 -0.29816,-0.11274 -0.61849,-0.17716 -0.97578,-0.17716 -0.79098,0 -1.34786,0.26842 -1.66326,0.79452 -0.16263,0.27111 -0.25627,0.63616 -0.27844,1.08173 l -0.92404,0 c -0.002,-0.8482 0.23409,-1.52462 0.7343,-2.03193 0.49774,-0.50195 1.18276,-0.7462 2.05998,-0.7462 0.75894,0 1.42177,0.18788 1.99591,0.56636 0.56427,0.37042 0.85257,0.99852 0.85257,1.87356 0,0.70864 -0.22423,1.2401 -0.66776,1.60784"
       id="path174"
       style="fill:#97999c;fill-opacity:1;fill-rule:nonzero;stroke:none" /></g></svg>